name D:\school\WTK\thesis\model\3dpredictsim\Results\MidTarsalJoint\Fal_s1_bCst_PF_Natali2010_ls150_MT_k300_MTP_Mu1_ig24.mot
datacolumns 128
datarows 4
range 1.00000000 1.06000000
endheader
time	pelvis_tilt	pelvis_list	pelvis_rotation	pelvis_tx	pelvis_ty	pelvis_tz	hip_flexion_l	hip_adduction_l	hip_rotation_l	hip_flexion_r	hip_adduction_r	hip_rotation_r	knee_angle_l	knee_angle_r	ankle_angle_l	ankle_angle_r	subtalar_angle_l	subtalar_angle_r	tmt_angle_l	tmt_angle_r	mtp_angle_l	mtp_angle_r	lumbar_extension	lumbar_bending	lumbar_rotation	arm_flex_l	arm_add_l	arm_rot_l	arm_flex_r	arm_add_r	arm_rot_r	elbow_flex_l	elbow_flex_r	pro_sup_l	pro_sup_r	glut_med1_l/activation	glut_med2_l/activation	glut_med3_l/activation	glut_min1_l/activation	glut_min2_l/activation	glut_min3_l/activation	semimem_l/activation	semiten_l/activation	bifemlh_l/activation	bifemsh_l/activation	sar_l/activation	add_long_l/activation	add_brev_l/activation	add_mag1_l/activation	add_mag2_l/activation	add_mag3_l/activation	tfl_l/activation	pect_l/activation	grac_l/activation	glut_max1_l/activation	glut_max2_l/activation	glut_max3_l/activation	iliacus_l/activation	psoas_l/activation	quad_fem_l/activation	gem_l/activation	peri_l/activation	rect_fem_l/activation	vas_med_l/activation	vas_int_l/activation	vas_lat_l/activation	med_gas_l/activation	lat_gas_l/activation	soleus_l/activation	tib_post_l/activation	flex_dig_l/activation	flex_hal_l/activation	tib_ant_l/activation	per_brev_l/activation	per_long_l/activation	per_tert_l/activation	ext_dig_l/activation	ext_hal_l/activation	ercspn_l/activation	intobl_l/activation	extobl_l/activation	glut_med1_r/activation	glut_med2_r/activation	glut_med3_r/activation	glut_min1_r/activation	glut_min2_r/activation	glut_min3_r/activation	semimem_r/activation	semiten_r/activation	bifemlh_r/activation	bifemsh_r/activation	sar_r/activation	add_long_r/activation	add_brev_r/activation	add_mag1_r/activation	add_mag2_r/activation	add_mag3_r/activation	tfl_r/activation	pect_r/activation	grac_r/activation	glut_max1_r/activation	glut_max2_r/activation	glut_max3_r/activation	iliacus_r/activation	psoas_r/activation	quad_fem_r/activation	gem_r/activation	peri_r/activation	rect_fem_r/activation	vas_med_r/activation	vas_int_r/activation	vas_lat_r/activation	med_gas_r/activation	lat_gas_r/activation	soleus_r/activation	tib_post_r/activation	flex_dig_r/activation	flex_hal_r/activation	tib_ant_r/activation	per_brev_r/activation	per_long_r/activation	per_tert_r/activation	ext_dig_r/activation	ext_hal_r/activation	ercspn_r/activation	intobl_r/activation	extobl_r/activation	
          1.00000000	         -2.88339324	          2.63222402	        -10.84476039	          1.25000001	          0.92757286	          0.00440929	         28.04536095	          2.70750150	         -8.03023674	         -3.12120698	         -1.01219576	         -0.91400059	        -19.90363350	        -23.35376678	          0.78135902	          0.95449356	         -7.99973439	         11.03319243	         -0.97986689	          6.62677741	         10.79685489	         15.18194460	         -3.26018943	         -1.57345508	         -5.01501398	          7.24962461	        -13.57688024	         14.94794328	        -10.21063880	        -13.44970710	         18.80807867	         34.92317947	         17.36592975	         86.51662706	         86.51662706	          0.12985305	          0.05000061	          0.05000010	          0.08888867	          0.05055555	          0.05000337	          0.05000001	          0.05000002	          0.05000002	          0.05000002	          0.08458909	          0.22492869	          0.32985080	          0.22289090	          0.22965362	          0.18691815	          0.14978897	          0.06839748	          0.05000027	          0.05000090	          0.19124598	          0.25347104	          0.12448041	          0.12345068	          0.25273335	          0.06666696	          0.06666692	          0.13575746	          0.06741806	          0.07103473	          0.05000097	          0.05000000	          0.05000000	          0.05000000	          0.05000001	          0.05000011	          0.05000009	          0.49648938	          0.31891976	          0.17625032	          0.62316801	          0.41604439	          0.39019894	          0.12294399	          0.09758939	          0.06725882	          0.41154176	          0.15624714	          0.08888901	          0.54075785	          0.36646067	          0.19567087	          0.05000014	          0.05000004	          0.05114438	          0.05000003	          0.08888703	          0.05000006	          0.05000009	          0.05000020	          0.05000037	          0.08510180	          0.39457328	          0.05000031	          0.05000013	          0.08762475	          0.08003920	          0.08163812	          0.13320366	          0.29845014	          0.06169034	          0.05000128	          0.06875133	          0.40434927	          0.23889693	          0.23677788	          0.20109163	          0.48115671	          0.53694200	          0.47968357	          0.35915271	          0.14851420	          0.23657810	          0.05000009	          0.07450698	          0.16699286	          0.05446248	          0.07534039	          0.07817139	          0.05000020	          0.05000001	          0.05000001	
          1.02000000	         -2.91160638	          2.66512018	        -10.37980040	          1.27532323	          0.92467704	          0.00332850	         27.52691947	          3.23532870	         -7.50396515	         -4.63128124	         -1.30942783	         -0.92273388	        -17.58236679	        -23.39157999	          0.27341170	          0.36036379	         -8.99593273	         10.77151123	         -0.88754088	          5.59323077	         10.29532590	         16.96223384	         -3.16622026	         -1.75837999	         -4.71859604	          6.95878597	        -13.53719438	         14.41704171	         -9.34318303	        -13.45283779	         19.30566996	         33.81156290	         16.02484431	         86.51662706	         86.51662706	          0.09738983	          0.06666667	          0.06666664	          0.06666670	          0.06661382	          0.05000085	          0.05000027	          0.06666667	          0.09127608	          0.05000005	          0.06344184	          0.19695145	          0.24738824	          0.30248750	          0.25723441	          0.19091757	          0.11234174	          0.05129833	          0.05000206	          0.06666692	          0.14343469	          0.22335819	          0.09336032	          0.09258802	          0.19016509	          0.05000046	          0.05000022	          0.10181810	          0.11046446	          0.10843500	          0.09585281	          0.05000000	          0.05000001	          0.05000000	          0.05000004	          0.05000019	          0.05000016	          0.53616207	          0.34738836	          0.19630776	          0.46737619	          0.37434286	          0.29264928	          0.11192949	          0.09035353	          0.05160822	          0.31961008	          0.11718537	          0.06666677	          0.43736958	          0.27484557	          0.14675319	          0.05000032	          0.05000004	          0.05000002	          0.05000010	          0.06666612	          0.08088440	          0.05000042	          0.05000015	          0.05000032	          0.06382642	          0.38523548	          0.06421498	          0.05000017	          0.06571867	          0.06002945	          0.06122861	          0.11159552	          0.34330367	          0.05000001	          0.05000010	          0.05156360	          0.30326201	          0.21069961	          0.21069958	          0.21069948	          0.44080745	          0.51150635	          0.39021622	          0.36956235	          0.23731899	          0.31236754	          0.05000002	          0.14002344	          0.15533037	          0.05000047	          0.05650533	          0.05862862	          0.05000001	          0.05000000	          0.05000000	
          1.04000000	         -2.92438008	          2.64905804	         -9.91641106	          1.30233157	          0.92336972	          0.00224124	         26.63292543	          3.85473528	         -6.79817438	         -5.78092555	         -1.60447791	         -0.88635906	        -18.15934191	        -24.07369713	         -0.24442798	         -0.82428308	         -9.85847686	         10.67747003	         -1.14922884	          3.76752452	          9.87673063	         19.84706332	         -2.90545003	         -1.90048030	         -4.40779355	          6.18192101	        -13.48418827	         13.68523210	         -8.66916466	        -13.47632720	         19.37452736	         33.23137471	         14.90588784	         86.51662706	         86.51662706	          0.07304241	          0.05000006	          0.05000004	          0.05000017	          0.05000011	          0.05000023	          0.06792642	          0.05000006	          0.09483546	          0.05000014	          0.06666592	          0.14843569	          0.31746621	          0.22686579	          0.19292588	          0.14318987	          0.08425632	          0.08888885	          0.05000090	          0.05000023	          0.10757605	          0.16751868	          0.07002027	          0.06944103	          0.22337653	          0.08582877	          0.12360586	          0.07636358	          0.11673865	          0.12144776	          0.10644648	          0.05545169	          0.05596944	          0.06138653	          0.10406454	          0.06666678	          0.06262786	          0.45853688	          0.26054132	          0.14723084	          0.35053219	          0.37321662	          0.21948698	          0.08394712	          0.09435991	          0.05000002	          0.25992047	          0.08788906	          0.05000010	          0.32802723	          0.20613422	          0.11006492	          0.05000059	          0.05000021	          0.05000021	          0.05000005	          0.05000018	          0.06859080	          0.22211814	          0.09813980	          0.11913695	          0.18774602	          0.28892696	          0.05000062	          0.05000025	          0.05000135	          0.05000172	          0.11305089	          0.08369666	          0.34633481	          0.05000010	          0.05000013	          0.05000002	          0.22744651	          0.15802472	          0.15802470	          0.15802463	          0.33060563	          0.38974562	          0.29266217	          0.31950936	          0.28331249	          0.35928720	          0.05000000	          0.14554651	          0.16319186	          0.05000004	          0.05000001	          0.05000006	          0.05000005	          0.05000004	          0.05000027	
          1.06000000	         -2.92946646	          2.61905532	         -9.42359435	          1.33038029	          0.92312918	          0.00114592	         25.21013431	          4.50785836	         -5.96414483	         -6.42944554	         -1.90610801	         -0.78299517	        -18.67926693	        -25.54541786	         -0.60809978	         -2.75854841	        -10.57993387	         10.71712892	         -1.04422769	          1.55464888	          9.50426261	         23.55013495	         -2.54834127	         -2.04949586	         -4.09236443	          5.07005982	        -13.45585122	         12.79243547	         -8.15062574	        -13.52268865	         19.18814285	         33.12082227	         14.10311949	         86.51662706	         86.51662706	          0.25208308	          0.17851497	          0.20917793	          0.05009925	          0.05000199	          0.05000041	          0.08036314	          0.11679062	          0.08981059	          0.06666722	          0.05000019	          0.11132692	          0.25290611	          0.17686755	          0.20722642	          0.19193660	          0.06319226	          0.06666708	          0.19191638	          0.19699470	          0.16007081	          0.14456407	          0.05251522	          0.05208079	          0.16753246	          0.06437168	          0.09270443	          0.05727269	          0.19729038	          0.20998694	          0.18117906	          0.05000002	          0.05000005	          0.05000000	          0.13696892	          0.05000038	          0.05000029	          0.56860352	          0.21039116	          0.12954514	          0.45258151	          0.38014398	          0.16461551	          0.09455482	          0.07076995	          0.05000001	          0.19494037	          0.06591687	          0.05000008	          0.24602046	          0.15460070	          0.08254876	          0.05000078	          0.05000014	          0.05000012	          0.05000004	          0.05000022	          0.11577534	          0.28415723	          0.10321478	          0.13808867	          0.14081020	          0.35321135	          0.05000143	          0.05000021	          0.05000129	          0.05000095	          0.11851862	          0.06277251	          0.40946917	          0.05000005	          0.05000030	          0.05000051	          0.17058489	          0.11851855	          0.11851853	          0.11851848	          0.24795422	          0.29230923	          0.21949663	          0.23963205	          0.24878547	          0.33138170	          0.05000182	          0.14309396	          0.14151132	          0.05000157	          0.10308807	          0.05000024	          0.08027244	          0.05000000	          0.05000001	
